<svg xmlns="http://www.w3.org/2000/svg" width="256" height="256" viewBox="0 0 256 256">
  <rect width="256" height="256" fill="#f3f4f6" rx="16"/>
  <path d="M128 80 C105 80 86 99 86 122 C86 145 105 164 128 164 C151 164 170 145 170 122 C170 99 151 80 128 80 Z M128 96 C142 96 154 108 154 122 C154 136 142 148 128 148 C114 148 102 136 102 122 C102 108 114 96 128 96 Z" fill="#d1d5db"/>
  <path d="M100 168 C100 168 80 180 80 200 L176 200 C176 180 156 168 156 168 Z" fill="#d1d5db"/>
  <line x1="80" y1="80" x2="176" y2="176" stroke="#e5e7eb" stroke-width="2"/>
</svg>
